<svg xmlns="http://www.w3.org/2000/svg" viewBox="0 0 28.66 43.75"><defs><style>.cls-1{fill:#161138;opacity:0.7;}.cls-2{fill:none;stroke:#010101;stroke-miterlimit:10;}.cls-3{fill:#1b171b;}</style></defs><title>bloom</title><g id="Layer_2" data-name="Layer 2"><g id="Layer_1-2" data-name="Layer 1"><rect class="cls-1" y="37.64" width="27.27" height="6.11"/><path class="cls-2" d="M20.88,41.38H6.53l.56-6L4.42,25.07l1.69-7.46s6.47-12.8,7.18-12.8A3.56,3.56,0,0,1,16,2.21,2,2,0,0,1,18,.5c1,.17,1.19,1.41,1.19,1.66s1.62-2,2.94.26v8.26S25,16.9,25,17.42,21.43,31.3,21,31.64Z"/><path class="cls-2" d="M13.28,4.81s3.8-1.33.43,4.9c0,0-.58,5.69-1.47,6.13a4.93,4.93,0,0,1-1.89.77"/><path class="cls-2" d="M13.72,9.71a8.79,8.79,0,0,0-1.81,0"/><path class="cls-2" d="M13.38,11.75A1.35,1.35,0,0,1,11.91,13"/><path class="cls-2" d="M10.35,7.23"/><path class="cls-2" d="M16,2.21S17.59,2.12,17.12,4s-2.27,7-2.39,7.75.47,3.79-1,4"/><path class="cls-2" d="M19.17,2.17v0Z"/><path class="cls-2" d="M17.21,4.46s1.53-2.94,4.73,6"/><path class="cls-2" d="M16.54,6.06s-.89,7.46,2.18,9.56a3.09,3.09,0,0,0,1.39.52"/><path class="cls-2" d="M12.69,25.25v-2s5.43-6,5.57-7.16"/><path class="cls-2" d="M16,15.2s1.11.43,1.53-.47"/><line class="cls-2" x1="13.89" y1="19.59" x2="15.51" y2="19.59"/><line class="cls-2" x1="13.38" y1="11.75" x2="14.73" y2="11.79"/><path class="cls-2" d="M16,31.29s3.31,2.08,4.61,0"/><path class="cls-3" d="M10.28,9.59,3.4,6.37a.63.63,0,0,0-.86.86l1.58,3.44c.34.73,1.41.1,1.08-.63L3.62,6.59l-.86.86,6.88,3.22c.72.34,1.36-.74.63-1.08Z"/><path class="cls-3" d="M3.42,7.21,6.11,6.14c.74-.3.42-1.5-.33-1.21L3.09,6c-.74.3-.42,1.5.33,1.21Z"/><path class="cls-3" d="M24,12.25l4-2.41a.63.63,0,0,0-.63-1.08l-4,2.41A.63.63,0,0,0,24,12.25Z"/><path class="cls-3" d="M28.18,8.53,25.76,6.65c-.63-.49-1.52.39-.88.88l2.42,1.88c.63.49,1.52-.39.88-.88Z"/><path class="cls-3" d="M27.44,9.41l-.56,3.22c-.14.79,1.07,1.12,1.21.33l.56-3.22c.14-.79-1.07-1.12-1.21-.33Z"/></g></g></svg>