<svg xmlns="http://www.w3.org/2000/svg" viewBox="0 0 51.62 24.77"><defs><style>.cls-1,.cls-2,.cls-3{fill:none;}.cls-1{stroke:#1b171b;stroke-linecap:round;stroke-linejoin:round;}.cls-2,.cls-3{stroke:#050508;stroke-miterlimit:10;}.cls-3{stroke-width:0.75px;}.cls-4{fill:#1b171b;}.cls-5{fill:#161138;opacity:0.7;}</style></defs><title>pinch</title><g id="Layer_2" data-name="Layer 2"><g id="Layer_1-2" data-name="Layer 1"><path class="cls-1" d="M.67,1.79"/><path class="cls-2" d="M45.63,16.46s-5.7.45-9.58,2.68c-2.92.51-11,1.1-13,2.83,0,0-2.57,0-5.81.15s.26-3.46,1.32-4.09c.7-.41,8.37-1.22,8.16-4.5-.85-1.94-1.43-2.34-3.35-3.65S22,7.53,19.14,7.06a10.1,10.1,0,0,1-4.56-1.93S5.16,4.82,4.07,1c.65-1.35,9.17.57,10.56.6s8.88.22,11.89.48,0,0,6.82,2A48.82,48.82,0,0,0,50.56,6.2"/><path class="cls-2" d="M19.54,17.82s-1.67-.39-1.45-2.71-1.55-3.42-1-4.92S19,8.7,19.39,7.34"/><path class="cls-2" d="M16.61,19.94s2.27-.12,2.68.34a1.38,1.38,0,0,1,.13,1.77"/><path class="cls-3" d="M23.4,9.88s.12,1.08-2.38,2c0,0,2.37,2.13,1.66,3.73,0,0,1.12,1,.66,1.15"/><path class="cls-3" d="M18.21,10.86s1.57,1.66,2.81,1.06"/><path class="cls-3" d="M19.55,16.57s2.46-2.08,3.12-.92"/><path class="cls-3" d="M27.8,10.71a2.21,2.21,0,0,1-1,2.81"/><path class="cls-2" d="M14.34,3s.57.15.45-.93"/><path class="cls-3" d="M22.61,13s2.41-1.09,3.2,1.87"/><path class="cls-3" d="M24.8,10.86s-.52.11-.74,1.9"/><path class="cls-4" d="M2.58,5.59A9.86,9.86,0,0,0,4.12,16c.52.62,1.4-.27.88-.88a8.54,8.54,0,0,1-1.35-8.9c.31-.73-.76-1.37-1.08-.63Z"/><path class="cls-4" d="M.45,16.23l4.45.89a.63.63,0,0,0,.77-.44l.76-4.25c.14-.79-1.06-1.12-1.21-.33l-.76,4.25.77-.44L.78,15c-.79-.16-1.12,1-.33,1.21Z"/><path class="cls-4" d="M13.62,23.61,7.21,20c-.7-.39-1.33.69-.63,1.08L13,24.69c.7.39,1.33-.69.63-1.08Z"/><path class="cls-4" d="M5.06,20.35v2.42a.63.63,0,0,0,1.25,0V20.35a.63.63,0,0,0-1.25,0Z"/><path class="cls-4" d="M5.69,20.43H9.18a.63.63,0,0,0,0-1.25H5.69a.63.63,0,0,0,0,1.25Z"/><rect class="cls-5" x="39.42" y="7.4" width="16.86" height="7.53" transform="translate(59.02 -36.69) rotate(90)"/></g></g></svg>