<svg xmlns="http://www.w3.org/2000/svg" viewBox="0 0 45.01 40.42"><defs><style>.cls-1{fill:none;stroke:#1b171b;stroke-linecap:round;stroke-linejoin:round;}.cls-2{fill:#161138;opacity:0.7;}</style></defs><title>voice</title><g id="Layer_2" data-name="Layer 2"><g id="Layer_1-2" data-name="Layer 1"><line class="cls-1" x1="0.5" y1="39.92" x2="15.01" y2="39.92"/><path class="cls-1" d="M44.79,31.12"/><path class="cls-1" d="M43.08,16.36a13.19,13.19,0,0,1-3.15,8c-1.78,2.39-3.11,2.75-3.81,6.77v8.7"/><path class="cls-1" d="M16.72,5.61a5.8,5.8,0,0,1,.46-.89C20,.28,25.82.5,29.68.5,38,.5,41.44,3.67,42.62,8.64"/><path class="cls-1" d="M23.25,39.84v-8.7H20.8c-2.13,0-2.9-3.14-2.9-3.14l-2.54-5.92h-1.7A1.4,1.4,0,0,1,12.44,20s.34-.43.78-1.06"/><line class="cls-1" x1="24.97" y1="31.14" x2="23.25" y2="31.14"/><line class="cls-1" x1="16.98" y1="25.46" x2="19.35" y2="25.46"/><path class="cls-2" d="M18.6,7.61H41.15A3.86,3.86,0,0,1,45,11.47v0a3.86,3.86,0,0,1-3.86,3.86H18.6a.07.07,0,0,1-.07-.07V7.68a.07.07,0,0,1,.07-.07Z"/><rect class="cls-2" x="13.47" y="4.46" width="5.06" height="14.02" rx="2.53" ry="2.53"/><path class="cls-1" d="M17.91,8.64H40.46a3.86,3.86,0,0,1,3.86,3.86v0a3.86,3.86,0,0,1-3.86,3.86H17.91a.07.07,0,0,1-.07-.07V8.71A.07.07,0,0,1,17.91,8.64Z"/><path class="cls-1" d="M41.45,14.88a1.17,1.17,0,0,0,1.17-1.17V11.29a1.17,1.17,0,0,0-1.17-1.17"/><rect class="cls-1" x="12.78" y="5.49" width="5.06" height="14.02" rx="2.53" ry="2.53"/><line class="cls-1" x1="14.24" y1="7.67" x2="14.24" y2="15.33"/><path class="cls-1" d="M12.31,27.17a3.06,3.06,0,0,0,1.73,4"/><path class="cls-1" d="M10.47,26.5a4.87,4.87,0,0,0,2.75,6.3"/><path class="cls-1" d="M8.19,25.9A6.78,6.78,0,0,0,12,34.69"/></g></g></svg>